<svg width="22" height="22" viewBox="0 0 22 22" fill="none" xmlns="http://www.w3.org/2000/svg">
<g id="clipboard">
<path id="Vector" d="M14.6667 3.66663H16.5001C16.9863 3.66663 17.4526 3.85978 17.7964 4.2036C18.1403 4.54741 18.3334 5.01373 18.3334 5.49996V18.3333C18.3334 18.8195 18.1403 19.2858 17.7964 19.6297C17.4526 19.9735 16.9863 20.1666 16.5001 20.1666H5.50008C5.01385 20.1666 4.54754 19.9735 4.20372 19.6297C3.8599 19.2858 3.66675 18.8195 3.66675 18.3333V5.49996C3.66675 5.01373 3.8599 4.54741 4.20372 4.2036C4.54754 3.85978 5.01385 3.66663 5.50008 3.66663H7.33341" stroke="white" stroke-width="1.5" stroke-linecap="round" stroke-linejoin="round"/>
<path id="Vector_2" d="M13.7499 1.83337H8.24992C7.74366 1.83337 7.33325 2.24378 7.33325 2.75004V4.58337C7.33325 5.08963 7.74366 5.50004 8.24992 5.50004H13.7499C14.2562 5.50004 14.6666 5.08963 14.6666 4.58337V2.75004C14.6666 2.24378 14.2562 1.83337 13.7499 1.83337Z" stroke="white" stroke-width="1.5" stroke-linecap="round" stroke-linejoin="round"/>
</g>
</svg>
