<svg width="18" height="18" viewBox="0 0 18 18" fill="none" xmlns="http://www.w3.org/2000/svg">
<path d="M10.9499 6.00025H15.75C16.5785 6.00025 17.25 6.67182 17.25 7.50023V9.07853C17.25 9.27443 17.2116 9.46845 17.1371 9.64965L14.8162 15.2858C14.7005 15.5668 14.4266 15.7502 14.1227 15.7502H1.5C1.08579 15.7502 0.75 15.4144 0.75 15.0002V7.50023C0.75 7.08603 1.08579 6.75025 1.5 6.75025H4.11138C4.35508 6.75025 4.58357 6.63184 4.72411 6.43276L8.81415 0.638516C8.92103 0.487115 9.12248 0.436484 9.28823 0.519362L10.6488 1.19963C11.4375 1.594 11.8448 2.48469 11.6273 3.33926L10.9499 6.00025ZM5.25 7.94085V14.2502H13.6205L15.75 9.07853V7.50023H10.9499C9.97132 7.50023 9.25485 6.57846 9.4962 5.63018L10.1737 2.9692C10.2172 2.79829 10.1357 2.62015 9.97792 2.54128L9.4821 2.29335L5.94956 7.29778C5.76214 7.5633 5.52256 7.78095 5.25 7.94085ZM3.75 8.25023H2.25V14.2502H3.75V8.25023Z" fill="#5855FE"/>
</svg>
