<svg width="34" height="34" viewBox="0 0 34 34" fill="none" xmlns="http://www.w3.org/2000/svg">
<path d="M5.66675 31.1667C5.66675 24.9074 10.7409 19.8333 17.0001 19.8333C23.2593 19.8333 28.3334 24.9074 28.3334 31.1667H25.5001C25.5001 26.4723 21.6945 22.6667 17.0001 22.6667C12.3057 22.6667 8.50008 26.4723 8.50008 31.1667H5.66675ZM17.0001 18.4167C12.3038 18.4167 8.50008 14.6129 8.50008 9.91667C8.50008 5.22042 12.3038 1.41667 17.0001 1.41667C21.6963 1.41667 25.5001 5.22042 25.5001 9.91667C25.5001 14.6129 21.6963 18.4167 17.0001 18.4167ZM17.0001 15.5833C20.1309 15.5833 22.6667 13.0475 22.6667 9.91667C22.6667 6.78583 20.1309 4.25 17.0001 4.25C13.8692 4.25 11.3334 6.78583 11.3334 9.91667C11.3334 13.0475 13.8692 15.5833 17.0001 15.5833Z" fill="white"/>
</svg>
