<svg width="34" height="35" viewBox="0 0 34 35" fill="none" xmlns="http://www.w3.org/2000/svg">
<path d="M25.5438 23.6458L31.611 29.7129L29.6075 31.7164L23.5404 25.6492C21.3589 27.3945 18.5923 28.4386 15.5833 28.4386C8.54525 28.4386 2.83325 22.7266 2.83325 15.6886C2.83325 8.65061 8.54525 2.93861 15.5833 2.93861C22.6213 2.93861 28.3333 8.65061 28.3333 15.6886C28.3333 18.6976 27.2892 21.4642 25.5438 23.6458ZM22.7016 22.5946C24.4339 20.8093 25.4999 18.374 25.4999 15.6886C25.4999 10.2097 21.0622 5.77195 15.5833 5.77195C10.1043 5.77195 5.66659 10.2097 5.66659 15.6886C5.66659 21.1676 10.1043 25.6053 15.5833 25.6053C18.2687 25.6053 20.7039 24.5392 22.4892 22.8069L22.7016 22.5946Z" fill="white"/>
</svg>
