<svg width="18" height="18" viewBox="0 0 18 18" fill="none" xmlns="http://www.w3.org/2000/svg">
<path d="M9.00023 2.25C13.0443 2.25 16.4088 5.15982 17.1142 9C16.4088 12.8401 13.0443 15.75 9.00023 15.75C4.95609 15.75 1.59161 12.8401 0.88623 9C1.59161 5.15982 4.95609 2.25 9.00023 2.25ZM9.00023 14.25C12.1769 14.25 14.8952 12.039 15.5833 9C14.8952 5.96102 12.1769 3.75 9.00023 3.75C5.82345 3.75 3.10517 5.96102 2.41709 9C3.10517 12.039 5.82345 14.25 9.00023 14.25ZM9.00023 12.375C7.13624 12.375 5.6252 10.864 5.6252 9C5.6252 7.13604 7.13624 5.625 9.00023 5.625C10.8641 5.625 12.3752 7.13604 12.3752 9C12.3752 10.864 10.8641 12.375 9.00023 12.375ZM9.00023 10.875C10.0358 10.875 10.8752 10.0355 10.8752 9C10.8752 7.96448 10.0358 7.125 9.00023 7.125C7.9647 7.125 7.1252 7.96448 7.1252 9C7.1252 10.0355 7.9647 10.875 9.00023 10.875Z" fill="#999999"/>
</svg>
