<svg width="18" height="19" viewBox="0 0 18 19" fill="none" xmlns="http://www.w3.org/2000/svg">
<path d="M9.00023 2.75C13.0443 2.75 16.4088 5.65982 17.1142 9.5C16.4088 13.3401 13.0443 16.25 9.00023 16.25C4.95609 16.25 1.59161 13.3401 0.88623 9.5C1.59161 5.65982 4.95609 2.75 9.00023 2.75ZM9.00023 14.75C12.1769 14.75 14.8952 12.539 15.5833 9.5C14.8952 6.46102 12.1769 4.25 9.00023 4.25C5.82345 4.25 3.10517 6.46102 2.41709 9.5C3.10517 12.539 5.82345 14.75 9.00023 14.75ZM9.00023 12.875C7.13624 12.875 5.6252 11.364 5.6252 9.5C5.6252 7.63604 7.13624 6.125 9.00023 6.125C10.8641 6.125 12.3752 7.63604 12.3752 9.5C12.3752 11.364 10.8641 12.875 9.00023 12.875ZM9.00023 11.375C10.0358 11.375 10.8752 10.5355 10.8752 9.5C10.8752 8.46448 10.0358 7.625 9.00023 7.625C7.9647 7.625 7.1252 8.46448 7.1252 9.5C7.1252 10.5355 7.9647 11.375 9.00023 11.375Z" fill="#5855FE"/>
</svg>
