<svg width="284" height="128" viewBox="0 0 284 128" fill="none" xmlns="http://www.w3.org/2000/svg">
<path d="M32.0795 118.164L25.993 99.194H23.1534L16.723 118.164L10.8402 99.4468H5.39026L14.5456 126.958H18.4166L24.4522 109.504L30.2205 126.958H34.0914L43.8452 99.4468H38.3953L32.0795 118.178V118.164ZM44.9403 126.944H59.5456V122.328H50.0719V114.825H59.1508V110.209H50.0719V104.063H59.5456V99.4468H44.9403V126.958V126.944ZM78.1746 99.4468L66.8418 126.958H72.4063L74.7366 121.184H85.3562L87.6865 126.958H93.2128L82.2111 99.4468H78.1873H78.1746ZM76.3537 116.807L80.1101 106.91L83.8664 116.807H76.3664H76.3537ZM108.175 114.173C110.225 112.723 111.256 110.382 111.256 107.695C111.256 105.633 110.658 103.278 108.646 101.509C107.423 100.431 105.564 99.4468 101.935 99.4468H94.3206V126.958H99.4522V115.903H100.089L107.118 126.958H113.51L105.297 115.371C106.557 115.118 107.512 114.666 108.175 114.173ZM100.904 112.111H99.4394V103.81H100.98C101.922 103.81 105.959 103.85 105.959 107.934C105.959 112.018 101.897 112.098 100.904 112.098V112.111ZM115 126.958H129.605V122.341H120.131V114.839H129.21V110.222H120.131V104.063H129.605V99.4468H115V126.958ZM137.067 104.063H142.988V126.958H148.119V104.063H154.04V99.4468H137.067V104.063ZM171.574 110.089H160.445V99.4468H155.314V126.958H160.445V114.705H171.574V126.958H176.706V99.4468H171.574V110.089ZM180.73 126.958H195.335V122.341H185.861V114.839H194.94V110.222H185.861V104.063H195.335V99.4468H180.73V126.958ZM218.344 98.8215C210.055 98.8215 204.299 104.848 204.299 113.216C204.299 121.583 210.068 127.57 218.357 127.57C226.646 127.57 232.415 121.583 232.415 113.216C232.415 104.848 226.634 98.8215 218.344 98.8215ZM218.344 122.701C213.213 122.701 209.584 118.776 209.584 113.216C209.584 107.655 213.213 103.69 218.344 103.69C223.476 103.69 227.105 107.655 227.105 113.216C227.105 118.776 223.476 122.701 218.344 122.701ZM254.736 117.792L238.718 99.4468H235.165V126.958H240.297V108.559L256.328 126.958H259.881V99.4468H254.749V117.805L254.736 117.792ZM278.497 104.05V99.4468H263.892V126.958H278.497V122.341H269.023V114.839H278.102V110.222H269.023V104.063H278.497V104.05Z" fill="white" fill-opacity="0.7"/>
<path d="M85.3708 1.56312L72.4479 45.9956L59.0291 1.56312H44.8833L30.44 45.9956L18.5416 1.56312H0L20.3925 70.3403H38.4384L51.5596 30.5307L63.9538 70.3403H82.0988L103.912 1.56312H85.3708ZM121.826 1.56312L95.5836 70.3403H114.324L118.951 58.7999H143.739L147.936 70.3403H166.908L141.194 1.56312H121.826ZM123.875 45.1974L131.345 22.9147L139.046 45.1974H123.875ZM206.966 1.56312H160.132V16.7287H174.675V70.3403H192.39V16.6954H206.933V1.56312H206.966ZM273.113 10.2102C266.139 3.49207 256.323 0 246.176 0C236.029 0 226.18 3.49207 219.24 10.2102C211.968 17.1278 208.465 26.8058 208.465 35.985C208.465 45.1642 211.935 54.6426 219.24 61.6601C226.213 68.3781 236.029 71.8702 246.176 71.8702C256.323 71.8702 266.172 68.3781 273.113 61.6601C280.384 54.6426 283.887 45.0644 283.887 35.985C283.887 26.9056 280.417 17.1278 273.113 10.2102ZM259.892 49.1884C256.719 52.3811 252.191 54.5429 246.176 54.5429C240.161 54.5429 235.633 52.2813 232.328 49.0886C229.75 46.6275 226.907 42.3705 226.907 36.3176C226.907 31.4619 228.659 26.4067 232.328 22.8149C236.029 19.09 241.251 17.3606 246.176 17.3606C251.101 17.3606 256.124 19.223 259.892 22.8149C263.065 25.9079 265.412 30.6637 265.412 36.0182C265.412 41.3728 263.065 46.0289 259.892 49.2216V49.1884Z" fill="white"/>
</svg>
