<svg width="95" height="25" viewBox="0 0 95 25" fill="none" xmlns="http://www.w3.org/2000/svg">
<path d="M28.5685 0.523082L24.2439 15.392L19.7535 0.523082H15.0197L10.1864 15.392L6.20477 0.523082H0L6.82414 23.5387H12.863L17.2539 10.2168L21.4015 23.5387H27.4735L34.7732 0.523082H28.5685ZM40.7679 0.523082L31.9861 23.5387H38.2572L39.8056 19.6768H48.1008L49.5054 23.5387H55.854L47.2491 0.523082H40.7679ZM41.4536 15.1249L43.9532 7.66816L46.5302 15.1249H41.4536ZM69.2589 0.523082H53.5866V5.59809H58.4531V23.5387H64.3814V5.58696H69.2479V0.523082H69.2589ZM91.3944 3.41673C89.0607 1.16859 85.7758 0 82.3803 0C78.9848 0 75.6889 1.16859 73.3663 3.41673C70.933 5.73164 69.7606 8.97029 69.7606 12.042C69.7606 15.1137 70.922 18.2856 73.3663 20.6339C75.7 22.882 78.9848 24.0506 82.3803 24.0506C85.7758 24.0506 89.0717 22.882 91.3944 20.6339C93.8276 18.2856 95 15.0803 95 12.042C95 9.00368 93.8387 5.73164 91.3944 3.41673ZM86.9703 16.4604C85.9085 17.5288 84.3933 18.2522 82.3803 18.2522C80.3674 18.2522 78.8521 17.4954 77.7461 16.427C76.8834 15.6034 75.9322 14.1789 75.9322 12.1533C75.9322 10.5284 76.5184 8.83674 77.7461 7.63477C78.9848 6.38827 80.7324 5.80955 82.3803 5.80955C84.0283 5.80955 85.7094 6.43279 86.9703 7.63477C88.0321 8.6698 88.8174 10.2613 88.8174 12.0531C88.8174 13.845 88.0321 15.4031 86.9703 16.4715V16.4604Z" fill="white"/>
</svg>
